<svg width="138" height="10" fill="none" xmlns="http://www.w3.org/2000/svg"><path d="M6.898 5.724H4.81V7.86H2.866V5.724H.778V3.888h2.088V1.74H4.81v2.148h2.088v1.836ZM9.93 2.148V.24h3.325V9h-2.136V2.148H9.928Zm11.2 5.208a44.442 44.442 0 0 0 2.22-1.896c.455-.416.84-.852 1.151-1.308.312-.456.468-.9.468-1.332 0-.328-.076-.584-.228-.768-.152-.184-.38-.276-.684-.276a.855.855 0 0 0-.72.348c-.168.224-.252.544-.252.96h-1.98c.016-.68.16-1.248.432-1.704A2.59 2.59 0 0 1 22.628.372c.456-.216.96-.324 1.512-.324.952 0 1.668.244 2.148.732.488.488.732 1.124.732 1.908 0 .856-.292 1.652-.876 2.388-.584.728-1.328 1.44-2.232 2.136h3.24V8.88h-6.024V7.356Zm8.999-4.644c.032-.856.312-1.516.84-1.98.528-.464 1.244-.696 2.148-.696.6 0 1.112.104 1.536.312.432.208.756.492.972.852.224.36.336.764.336 1.212 0 .528-.132.96-.396 1.296a2.017 2.017 0 0 1-.924.672v.048c.456.152.816.404 1.08.756.264.352.396.804.396 1.356 0 .496-.116.936-.348 1.32-.224.376-.556.672-.996.888-.432.216-.948.324-1.548.324-.96 0-1.728-.236-2.304-.708-.568-.472-.868-1.184-.9-2.136h1.992c.008.352.108.632.3.84.192.2.472.3.84.3.312 0 .552-.088.72-.264.176-.184.264-.424.264-.72 0-.384-.124-.66-.372-.828-.24-.176-.628-.264-1.164-.264h-.384V3.624h.384c.408 0 .736-.068.984-.204.256-.144.384-.396.384-.756 0-.288-.08-.512-.24-.672-.16-.16-.38-.24-.66-.24-.304 0-.532.092-.684.276a1.263 1.263 0 0 0-.252.684h-2.004Zm9.241 4.728V5.784L43.161.36h2.292v5.304h.984V7.44h-.984V9h-2.052V7.44H39.37Zm4.176-4.824L41.53 5.664h2.016V2.616Zm16.608-.588H56.41v1.656c.16-.176.384-.32.672-.432.288-.112.6-.168.936-.168.6 0 1.096.136 1.488.408.4.272.692.624.876 1.056.184.432.276.9.276 1.404 0 .936-.264 1.68-.792 2.232-.528.544-1.272.816-2.232.816-.64 0-1.196-.108-1.668-.324-.472-.224-.836-.532-1.092-.924a2.66 2.66 0 0 1-.42-1.356h2.004c.048.248.164.456.348.624.184.16.436.24.756.24.376 0 .656-.12.84-.36.184-.24.276-.56.276-.96 0-.392-.096-.692-.288-.9-.192-.208-.472-.312-.84-.312-.272 0-.496.068-.672.204a.896.896 0 0 0-.348.516h-1.98V.228h5.604v1.8Zm9.805 0h-3.744v1.656c.16-.176.384-.32.672-.432.288-.112.6-.168.936-.168.6 0 1.096.136 1.488.408.4.272.692.624.876 1.056.184.432.276.9.276 1.404 0 .936-.264 1.68-.792 2.232-.528.544-1.272.816-2.232.816-.64 0-1.196-.108-1.668-.324-.472-.224-.836-.532-1.092-.924a2.66 2.66 0 0 1-.42-1.356h2.004c.048.248.164.456.348.624.184.16.436.24.756.24.376 0 .656-.12.84-.36.184-.24.276-.56.276-.96 0-.392-.096-.692-.288-.9-.192-.208-.472-.312-.84-.312-.272 0-.496.068-.672.204a.896.896 0 0 0-.348.516h-1.98V.228h5.604v1.8Zm9.805 0h-3.744v1.656c.16-.176.384-.32.672-.432.288-.112.6-.168.936-.168.6 0 1.096.136 1.488.408.4.272.692.624.876 1.056.184.432.276.9.276 1.404 0 .936-.264 1.68-.792 2.232-.528.544-1.272.816-2.232.816-.64 0-1.196-.108-1.668-.324-.472-.224-.836-.532-1.092-.924a2.66 2.66 0 0 1-.42-1.356h2.004c.048.248.164.456.348.624.184.16.436.24.756.24.376 0 .656-.12.84-.36.184-.24.276-.56.276-.96 0-.392-.096-.692-.288-.9-.192-.208-.472-.312-.84-.312-.272 0-.496.068-.672.204a.896.896 0 0 0-.348.516h-1.98V.228h5.604v1.8Zm9 1.908V5.64h-5.28V3.936h5.28Zm9.765-1.908h-3.744v1.656c.16-.176.384-.32.672-.432.288-.112.6-.168.936-.168.6 0 1.096.136 1.488.408.4.272.692.624.876 1.056.184.432.276.9.276 1.404 0 .936-.264 1.68-.792 2.232-.528.544-1.272.816-2.232.816-.64 0-1.196-.108-1.668-.324-.472-.224-.836-.532-1.092-.924a2.66 2.66 0 0 1-.42-1.356h2.004c.048.248.164.456.348.624.184.16.436.24.756.24.376 0 .656-.12.84-.36.184-.24.276-.56.276-.96 0-.392-.096-.692-.288-.9-.192-.208-.472-.312-.84-.312-.272 0-.496.068-.672.204a.896.896 0 0 0-.348.516h-1.98V.228h5.604v1.8Zm9.805 0h-3.744v1.656c.16-.176.384-.32.672-.432.288-.112.6-.168.936-.168.6 0 1.096.136 1.488.408.4.272.692.624.876 1.056.184.432.276.9.276 1.404 0 .936-.264 1.68-.792 2.232-.528.544-1.272.816-2.232.816-.64 0-1.196-.108-1.668-.324-.472-.224-.836-.532-1.092-.924a2.66 2.66 0 0 1-.42-1.356h2.004c.048.248.164.456.348.624.184.16.436.24.756.24.376 0 .656-.12.84-.36.184-.24.276-.56.276-.96 0-.392-.096-.692-.288-.9-.192-.208-.472-.312-.84-.312-.272 0-.496.068-.672.204a.896.896 0 0 0-.348.516h-1.98V.228h5.604v1.8Zm9.001 1.908V5.64h-5.28V3.936h5.28Zm9.765-1.908h-3.744v1.656c.16-.176.384-.32.672-.432.288-.112.6-.168.936-.168.6 0 1.096.136 1.488.408.4.272.692.624.876 1.056.184.432.276.9.276 1.404 0 .936-.264 1.68-.792 2.232-.528.544-1.272.816-2.232.816-.64 0-1.196-.108-1.668-.324-.472-.224-.836-.532-1.092-.924a2.66 2.66 0 0 1-.42-1.356h2.004c.048.248.164.456.348.624.184.16.436.24.756.24.376 0 .656-.12.84-.36.184-.24.276-.56.276-.96 0-.392-.096-.692-.288-.9-.192-.208-.472-.312-.84-.312-.272 0-.496.068-.672.204a.896.896 0 0 0-.348.516h-1.98V.228h5.604v1.8Zm9.804 0h-3.744v1.656c.16-.176.384-.32.672-.432.288-.112.6-.168.936-.168.6 0 1.096.136 1.488.408.4.272.692.624.876 1.056.184.432.276.9.276 1.404 0 .936-.264 1.68-.792 2.232-.528.544-1.272.816-2.232.816-.64 0-1.196-.108-1.668-.324-.472-.224-.836-.532-1.092-.924a2.66 2.66 0 0 1-.42-1.356h2.004c.048.248.164.456.348.624.184.16.436.24.756.24.376 0 .656-.12.84-.36.184-.24.276-.56.276-.96 0-.392-.096-.692-.288-.9-.192-.208-.472-.312-.84-.312-.272 0-.496.068-.672.204a.896.896 0 0 0-.348.516h-1.98V.228h5.604v1.8Z" fill="#fff"/></svg>